<svg width="64" height="64" viewBox="0 0 64 64" fill="none" xmlns="http://www.w3.org/2000/svg">
<g clip-path="url(#clip0_299_5927)">
<path d="M44.6313 35.0931L41.0519 20.3002C40.7013 18.8511 39.404 17.8303 37.913 17.8303H6.42892C4.93792 17.8303 3.64079 18.8511 3.29004 20.3002L0.493041 31.8598C-0.0239505 33.9963 -0.135589 36.2108 0.163916 38.3884L1.08442 45.081C1.30567 46.6893 2.68004 47.8877 4.30367 47.8877H59.7868C61.4103 47.8877 62.7848 46.6893 63.0059 45.081L63.9754 38.0313C64.1892 36.4777 62.9818 35.093 61.4135 35.093H44.6313V35.0931Z" fill="#E77587"/>
<path opacity="0.08" d="M44.6312 40.3813C40.4856 40.3813 37.1249 43.7421 37.1249 47.8877H52.1376C52.1376 43.7421 48.7769 40.3813 44.6312 40.3813ZM13.4247 40.3813C9.564 40.3813 6.3855 43.2964 5.96662 47.0453C5.417 46.5477 5.03475 45.8636 4.92712 45.081L4.00662 38.3884C3.70712 36.2108 3.81876 33.9963 4.33575 31.8598L7.13287 20.3002C7.4835 18.8509 8.78075 17.8303 10.2717 17.8303H6.42887C4.93787 17.8303 3.64062 18.8511 3.29 20.3002L0.492998 31.8598C-0.023932 33.9963 -0.13557 36.2108 0.163873 38.3884L1.08437 45.081C1.30562 46.6893 2.68 47.8877 4.30362 47.8877H20.9312C20.9311 43.7421 17.5705 40.3813 13.4247 40.3813Z" fill="black"/>
<path d="M7.11377 47.8877C7.11377 48.7165 7.27701 49.5372 7.59418 50.3029C7.91135 51.0686 8.37624 51.7643 8.96229 52.3504C9.54835 52.9365 10.2441 53.4013 11.0098 53.7185C11.7755 54.0357 12.5962 54.1989 13.425 54.1989C14.2538 54.1989 15.0745 54.0357 15.8402 53.7185C16.6059 53.4013 17.3017 52.9365 17.8877 52.3504C18.4738 51.7643 18.9387 51.0686 19.2559 50.3029C19.573 49.5372 19.7363 48.7165 19.7363 47.8877C19.7363 46.2138 19.0713 44.6085 17.8877 43.4249C16.7042 42.2413 15.0989 41.5764 13.425 41.5764C11.7512 41.5764 10.1459 42.2413 8.96229 43.4249C7.7787 44.6085 7.11377 46.2138 7.11377 47.8877Z" fill="#4A5058"/>
<path d="M10.9126 47.8877C10.9126 48.5541 11.1773 49.1932 11.6485 49.6644C12.1197 50.1355 12.7587 50.4002 13.4251 50.4002C14.0915 50.4002 14.7305 50.1355 15.2017 49.6644C15.6729 49.1932 15.9376 48.5541 15.9376 47.8877C15.9376 47.2214 15.6729 46.5823 15.2017 46.1111C14.7305 45.64 14.0915 45.3752 13.4251 45.3752C12.7587 45.3752 12.1197 45.64 11.6485 46.1111C11.1773 46.5823 10.9126 47.2214 10.9126 47.8877Z" fill="#BCBCBC"/>
<path d="M38.3201 47.8877C38.3201 49.5615 38.985 51.1668 40.1686 52.3504C41.3522 53.534 42.9575 54.1989 44.6313 54.1989C46.3052 54.1989 47.9105 53.534 49.0941 52.3504C50.2776 51.1668 50.9426 49.5615 50.9426 47.8877C50.9426 46.2138 50.2776 44.6085 49.0941 43.4249C47.9105 42.2413 46.3052 41.5764 44.6313 41.5764C42.9575 41.5764 41.3522 42.2413 40.1686 43.4249C38.985 44.6085 38.3201 46.2138 38.3201 47.8877Z" fill="#4A5058"/>
<path d="M42.1189 47.8877C42.1189 48.5541 42.3836 49.1932 42.8548 49.6644C43.326 50.1355 43.965 50.4002 44.6314 50.4002C45.2977 50.4002 45.9368 50.1355 46.408 49.6644C46.8792 49.1932 47.1439 48.5541 47.1439 47.8877C47.1439 47.2214 46.8792 46.5823 46.408 46.1111C45.9368 45.64 45.2977 45.3752 44.6314 45.3752C43.965 45.3752 43.326 45.64 42.8548 46.1111C42.3836 46.5823 42.1189 47.2214 42.1189 47.8877Z" fill="#BCBCBC"/>
<path d="M41.4453 21.9255H27.0557C26.306 21.9255 25.6984 22.5332 25.6984 23.2828V33.7355C25.6984 34.4852 26.306 35.0928 27.0557 35.0928H44.6313L41.4453 21.9255ZM5.06391 33.6453L7.60016 23.163C7.68549 22.8103 7.88697 22.4964 8.1722 22.272C8.45742 22.0475 8.80984 21.9255 9.17279 21.9255H19.2744C20.024 21.9255 20.6317 22.5332 20.6317 23.2828V33.7355C20.6317 34.4852 20.024 35.0928 19.2744 35.0928H6.20304C5.44429 35.0929 4.88554 34.3828 5.06391 33.6453Z" fill="#F1F1F1"/>
<path d="M57.4536 38.4131C57.147 38.4131 56.853 38.5349 56.6362 38.7517C56.4194 38.9685 56.2976 39.2625 56.2976 39.5691V42.3611C56.2976 42.6677 56.4194 42.9617 56.6362 43.1785C56.853 43.3953 57.147 43.5171 57.4536 43.5171H63.2209L63.9229 38.4131H57.4536Z" fill="#F0B0B7"/>
<path d="M57.4536 38.4131C57.3018 38.4131 57.1515 38.443 57.0112 38.501C56.8709 38.5591 56.7435 38.6443 56.6362 38.7516C56.5288 38.859 56.4437 38.9864 56.3856 39.1267C56.3275 39.2669 56.2976 39.4173 56.2976 39.5691V42.3611C56.2976 42.6677 56.4194 42.9617 56.6362 43.1785C56.853 43.3953 57.147 43.5171 57.4536 43.5171H59.5284V38.4131H57.4536Z" fill="white"/>
<path d="M38.9296 9.80103H6.16189C4.88127 9.80103 3.84302 10.8393 3.84302 12.1199V15.5112C3.84302 16.7918 4.88127 17.83 6.16189 17.83H38.9296C40.2103 17.83 41.2485 16.7918 41.2485 15.5112V12.1199C41.2485 10.8393 40.2104 9.80103 38.9296 9.80103Z" fill="#5EC08B"/>
<path opacity="0.08" d="M7.74564 15.5112V12.1199C7.74564 10.8392 8.78389 9.80103 10.0645 9.80103H6.16189C4.88114 9.80103 3.84302 10.8392 3.84302 12.1199V15.5112C3.84302 16.7918 4.88127 17.83 6.16189 17.83H10.0645C8.78389 17.83 7.74564 16.7919 7.74564 15.5112Z" fill="black"/>
<path d="M20.6338 9.80127H24.4583V17.83H20.6338V9.80127ZM29.2472 40.1134H25.6983C25.4496 40.1134 25.2112 40.0146 25.0354 39.8388C24.8596 39.663 24.7608 39.4245 24.7608 39.1759C24.7608 38.9272 24.8596 38.6888 25.0354 38.513C25.2112 38.3372 25.4496 38.2384 25.6983 38.2384H29.2472C29.4958 38.2384 29.7343 38.3372 29.9101 38.513C30.0859 38.6888 30.1847 38.9272 30.1847 39.1759C30.1847 39.4245 30.0859 39.663 29.9101 39.8388C29.7343 40.0146 29.4958 40.1134 29.2472 40.1134Z" fill="#4A5058"/>
<path d="M43.7923 31.6252H34.8884C34.395 31.6252 33.9157 31.7892 33.5257 32.0913C33.1356 32.3935 32.8571 32.8167 32.7338 33.2944L32.2695 35.0931H44.6313L43.7923 31.6252Z" fill="#BCBCBC"/>
</g>
<defs>
<clipPath id="clip0_299_5927">
<rect width="64" height="64" fill="white"/>
</clipPath>
</defs>
</svg>
