<svg width="64" height="64" viewBox="0 0 64 64" fill="none" xmlns="http://www.w3.org/2000/svg">
<path d="M9.30424 27.3201C9.30424 27.3201 14.2426 17.9863 28.0001 17.9863C41.7576 17.9863 46.6697 27.3241 46.6697 27.3241C62.6674 27.3241 62.6674 27.3241 62.6674 41.9848H6.66762C4.20474 42.0043 1.33374 39.3481 1.33374 39.3481V29.9861L4.00062 27.3201H9.30424Z" fill="#656D78"/>
<path d="M45.783 25.992C43.8319 23.412 38.4883 17.9863 28.0002 17.9863C17.5072 17.9863 12.145 23.414 10.1909 25.992H45.783Z" fill="#4FC2E9"/>
<path d="M24.0002 18.5505H26.6672V25.9918H24.0002V18.5505Z" fill="#3BAFDA"/>
<path d="M6.64223 43.3206C3.74673 43.3206 0.759482 40.6331 0.428482 40.3284C0.293742 40.203 0.186234 40.0513 0.112646 39.8826C0.0390577 39.7139 0.000963421 39.5319 0.000732422 39.3479V29.9859C0.000792041 29.6321 0.141288 29.2928 0.391357 29.0425L3.05823 26.3765C3.30823 26.1265 3.64711 25.9859 4.00061 25.9859H8.55911C9.18123 25.0484 10.4946 23.3218 12.6665 21.6051C15.5277 19.3455 20.5111 16.6521 28.0001 16.6521C35.4902 16.6521 40.4666 19.3493 43.3221 21.609C45.4881 23.3257 46.7967 25.0524 47.4159 25.9917C55.2535 25.9937 59.2574 26.0562 61.568 28.1734C63.9995 30.4039 63.9995 34.2739 63.9995 41.9846C63.9995 42.7229 63.4019 43.3166 62.6675 43.3166L6.64223 43.3206ZM2.66761 38.7347C3.57973 39.4652 5.32873 40.6527 6.64123 40.6527H61.3316C61.3257 34.778 61.2261 31.4782 59.7652 30.1404C58.148 28.658 54.07 28.658 46.6697 28.658C46.4266 28.6577 46.1882 28.5911 45.98 28.4655C45.7718 28.3399 45.6018 28.16 45.4881 27.9451C45.4804 27.9275 44.2986 25.7538 41.5624 23.6191C37.9062 20.7656 33.3439 19.3203 28.0001 19.3203C22.6555 19.3203 18.0872 20.7656 14.4232 23.6171C11.6801 25.7519 10.4917 27.9256 10.48 27.9471C10.2495 28.3846 9.79836 28.6522 9.30423 28.6522H4.55336L2.66761 30.5387V38.7347Z" fill="#656D78"/>
<path d="M14.6674 34.0161C10.9907 34.0161 8.00049 37.0044 8.00049 40.68C8.00049 44.3597 10.9907 47.348 14.6674 47.348C18.3431 47.348 21.3332 44.3597 21.3332 40.68C21.3334 37.0044 18.3431 34.0161 14.6674 34.0161ZM49.3317 34.0161C45.6561 34.0161 42.6677 37.0044 42.6677 40.68C42.6677 44.3597 45.656 47.348 49.3317 47.348C53.0094 47.348 55.9996 44.3597 55.9996 40.68C55.9996 37.0044 53.0094 34.0161 49.3317 34.0161Z" fill="#434A54"/>
<path d="M13.3335 40.6799C13.3335 41.4181 13.9311 42.0159 14.6674 42.0159C15.4037 42.0159 16.0004 41.4183 16.0004 40.6799C16.0004 39.9455 15.4037 39.3479 14.6674 39.3479C13.9311 39.3479 13.3335 39.9455 13.3335 40.6799ZM47.9999 40.6799C47.9999 41.4181 48.5975 42.0159 49.3317 42.0159C49.5072 42.016 49.681 41.9815 49.8431 41.9144C50.0052 41.8473 50.1525 41.7488 50.2766 41.6248C50.4007 41.5007 50.4991 41.3534 50.5662 41.1913C50.6333 41.0291 50.6678 40.8554 50.6677 40.6799C50.6677 39.9455 50.0701 39.3479 49.3317 39.3479C48.5975 39.3479 47.9999 39.9455 47.9999 40.6799Z" fill="#F5F7FA"/>
<path d="M30.667 33.9858H28C27.2636 33.9858 26.667 33.3882 26.667 32.6518C26.667 31.9156 27.2636 31.3198 28 31.3198H30.6669C31.4032 31.3198 31.9999 31.9156 31.9999 32.6518C32 33.3881 31.4034 33.9858 30.667 33.9858Z" fill="#434A54"/>
<path d="M63.6322 32.6088C63.4682 31.5913 63.2298 30.7281 62.8822 29.9858H58.6479C57.9115 29.9858 57.3159 30.5835 57.3159 31.3198C57.3159 32.0562 57.9117 32.6518 58.6479 32.6518H63.304C63.4173 32.6518 63.5267 32.6362 63.6322 32.6088Z" fill="#F5F7FA"/>
<path d="M4.00061 25.986C3.82557 25.986 3.65226 26.0205 3.49057 26.0875C3.32887 26.1546 3.18196 26.2528 3.05823 26.3766L0.391357 29.0425C0.141357 29.2925 0.000732422 29.6323 0.000732422 29.9858H4.00073C4.73711 29.9858 5.33373 29.3882 5.33373 28.6518V25.9858H4.00061V25.986Z" fill="#ED5564"/>
</svg>
