<svg width="64" height="64" viewBox="0 0 64 64" fill="none" xmlns="http://www.w3.org/2000/svg">
<path d="M27.5693 20.0862C36.3324 20.0862 45.194 26.1908 46.277 26.9785H27.5693V25.9939L26.5847 21.0708V20.0862H27.5693Z" fill="#D7E9FF"/>
<path d="M27.5692 25.9939V26.9785H20.6769C15.7539 26.9785 13.7846 23.04 13.7846 23.04V21.76C15.6554 21.2677 20.0862 20.1846 26.5846 20.0862V21.0708L27.5692 25.9939ZM6.89232 28.9477L1.96924 30.917V27.9631L6.89232 28.9477Z" fill="#D7E9FF"/>
<path d="M2.95385 28.1601L1.96924 27.9631V30.917L2.95385 30.5231V28.1601Z" fill="white"/>
<path d="M55.1384 30.917H61.7353L63.0153 32.8862L57.1077 31.9016L55.1384 30.917Z" fill="#D7E9FF"/>
<path d="M63.0153 32.8862L61.7353 30.917H60.7507L61.9323 32.6893L63.0153 32.8862Z" fill="#94C1FF"/>
<path d="M50.2154 43.717C47.7539 43.717 45.7846 41.9447 45.3908 39.6801C45.2923 39.2862 45.2923 39.0893 45.2923 38.7939C45.2923 36.037 47.4585 33.8708 50.2154 33.8708C52.9723 33.8708 55.1385 36.037 55.1385 38.7939C55.1385 39.0893 55.1385 39.3847 55.04 39.6801C54.6462 41.9447 52.677 43.717 50.2154 43.717ZM12.8 43.717C10.3385 43.717 8.36926 41.9447 7.97541 39.6801C7.87695 39.2862 7.87695 39.0893 7.87695 38.7939C7.87695 36.037 10.0431 33.8708 12.8 33.8708C15.557 33.8708 17.7231 36.037 17.7231 38.7939C17.7231 39.0893 17.7231 39.3847 17.6246 39.6801C17.2308 41.9447 15.2616 43.717 12.8 43.717Z" fill="#D7E9FF"/>
<path d="M8.96003 39.5816C8.86157 39.2862 8.86157 39.0893 8.86157 38.7939C8.86157 36.2339 10.8308 34.1662 13.2923 33.9693C13.0954 33.9693 12.997 33.8708 12.8 33.8708C10.0431 33.8708 7.87695 36.037 7.87695 38.7939C7.87695 39.0893 7.87695 39.3847 7.97541 39.6801C8.36926 42.0432 10.3385 43.717 12.8 43.717H13.2923C11.1262 43.4216 9.35388 41.7478 8.96003 39.5816Z" fill="white"/>
<path d="M16.6399 37.9078C16.7384 38.2032 16.7384 38.4985 16.7384 38.7939C16.7384 41.3539 14.7692 43.4216 12.3076 43.6185C12.5045 43.6185 12.603 43.717 12.7999 43.717C15.5568 43.717 17.723 41.5508 17.723 38.7939C17.723 38.4985 17.723 38.2032 17.6245 37.9078C17.2307 35.5447 15.2615 33.8708 12.7999 33.8708H12.3076C14.4738 34.0678 16.2461 35.7416 16.6399 37.9078Z" fill="#94C1FF"/>
<path d="M46.3753 39.5816C46.2769 39.2862 46.2769 39.0893 46.2769 38.7939C46.2769 36.2339 48.2461 34.1662 50.7076 33.9693C50.5107 33.9693 50.4122 33.8708 50.2153 33.8708C47.4584 33.8708 45.2922 36.037 45.2922 38.7939C45.2922 39.0893 45.2922 39.3847 45.3907 39.6801C45.7845 42.0432 47.7538 43.717 50.2153 43.717H50.7076C48.5415 43.4216 46.7692 41.7478 46.3753 39.5816Z" fill="white"/>
<path d="M54.0555 37.9078C54.1539 38.2032 54.1539 38.4985 54.1539 38.7939C54.1539 41.3539 52.1847 43.4216 49.7231 43.6185C49.9201 43.6185 50.0185 43.717 50.2155 43.717C52.9724 43.717 55.1385 41.5508 55.1385 38.7939C55.1385 38.4985 55.1385 38.2032 55.0401 37.9078C54.6462 35.5447 52.677 33.8708 50.2155 33.8708H49.7231C51.8893 34.0678 53.6616 35.7416 54.0555 37.9078Z" fill="#94C1FF"/>
<path d="M7.87693 38.7939C7.87693 39.0893 7.87693 39.3846 7.97539 39.68L6.89231 39.7785C6.89231 39.7785 2.95385 39.2862 1.96923 38.7939C0.984619 38.3016 0.984619 37.8093 0.984619 37.8093V32.8862L1.96923 30.917L6.89231 28.9477L1.96923 27.9631C1.96923 27.9631 4.92308 25.0093 9.84616 23.04V21.0708L12.8 22.0554C12.8 22.0554 13.0954 21.957 13.7846 21.76V23.04C13.7846 23.04 15.7538 26.9785 20.6769 26.9785H46.2769L46.3754 27.077L61.0462 29.9323L61.7354 30.917H55.1385L57.1077 31.9016L63.0154 32.8862V38.3016C63.0154 38.3016 63.0154 39.0893 62.0308 39.2862C61.0462 39.4831 56.1231 39.7785 56.1231 39.7785L55.04 39.68C55.1385 39.3846 55.1385 39.0893 55.1385 38.7939C55.1385 36.037 52.9723 33.8708 50.2154 33.8708C47.4585 33.8708 45.2923 36.037 45.2923 38.7939C45.2923 39.0893 45.2923 39.3846 45.3908 39.68L44.3077 39.7785H18.7077L17.6246 39.68C17.7231 39.3846 17.7231 39.0893 17.7231 38.7939C17.7231 36.037 15.5569 33.8708 12.8 33.8708C10.0431 33.8708 7.87693 36.037 7.87693 38.7939Z" fill="#94C1FF"/>
<path d="M10.8308 23.5323V21.3662L9.84616 21.0708V23.04C4.92308 25.0093 1.96923 27.9631 1.96923 27.9631L2.95385 28.16C2.95385 28.16 6.59693 25.0093 10.8308 23.5323ZM1.96923 37.8093V32.8862L2.95385 30.917H1.96923L0.984619 32.8862V37.8093C0.984619 37.8093 0.984619 38.3016 1.96923 38.7939C2.95385 39.2862 6.89231 39.7785 6.89231 39.7785L7.38462 39.68C6.30154 39.4831 3.74154 39.1877 2.95385 38.7939C1.96923 38.3016 1.96923 37.8093 1.96923 37.8093Z" fill="#D7E9FF"/>
<path d="M60.7509 30.917H61.7355L61.0463 29.9324L46.4739 27.077L46.3755 26.9785H45.3909L45.4893 27.077L60.7509 30.917ZM62.0309 32.8862V38.3016C62.0309 38.3016 62.0309 39.0893 61.0463 39.2862C60.2586 39.4831 57.2063 39.68 55.8278 39.7785H56.1232C56.1232 39.7785 61.0463 39.4831 62.0309 39.2862C63.0155 39.0893 63.0155 38.3016 63.0155 38.3016V32.8862H62.0309Z" fill="#5C9EFF"/>
<path d="M31.3106 26.9784H33.3783L34.8553 21.2676C34.2645 21.0707 33.5753 20.8738 32.9845 20.7753L31.3106 26.9784ZM33.8706 26.9784H34.363L35.8399 21.6615C35.643 21.563 35.5445 21.563 35.3476 21.4646L33.8706 26.9784ZM21.0706 20.3815L19.2983 26.7815C19.6922 26.88 20.1845 26.88 20.6768 26.88H21.366L23.1383 20.1846C22.4491 20.283 21.6614 20.283 21.0706 20.3815ZM21.8583 26.9784H22.3506L24.2214 20.1846H23.7291L21.8583 26.9784Z" fill="white"/>
<path d="M56.1229 40.2707C55.8276 40.2707 55.6306 40.0738 55.6306 39.7784C55.6306 39.483 55.8276 39.2861 56.1229 39.2861C57.7968 39.1876 61.2429 38.9907 61.9322 38.7938C62.5229 38.6953 62.5229 38.3014 62.5229 38.3014V33.083L60.7506 30.4245L46.3753 27.5691C46.2768 27.5691 46.2768 27.5691 46.1783 27.4707C46.0799 27.3722 36.6276 20.5784 27.5691 20.5784C18.4122 20.5784 12.9968 22.5476 12.9968 22.5476H12.7014L9.74757 21.563C9.45219 21.4645 9.35372 21.1691 9.45219 20.9722C9.55065 20.6768 9.84603 20.5784 10.043 20.6768L12.7999 21.563C13.7845 21.2676 19.003 19.5938 27.5691 19.5938C36.6276 19.5938 45.5876 25.8953 46.6706 26.5845L61.1445 29.4399C61.2429 29.4399 61.3414 29.5384 61.4399 29.6368L63.4091 32.5907C63.5076 32.6891 63.5076 32.7876 63.5076 32.8861V38.3014C63.5076 38.6953 63.2122 39.5814 62.1291 39.7784C61.1445 39.9753 56.3199 40.2707 56.1229 40.2707ZM6.89219 40.2707C6.39988 40.1722 2.7568 39.7784 1.77219 39.1876C0.590649 38.5968 0.492188 37.9076 0.492188 37.8091V32.8861C0.492188 32.7876 0.492187 32.6891 0.590649 32.6891L1.4768 30.8184V27.963C1.4768 27.8645 1.57526 27.6676 1.57526 27.5691C1.67373 27.4707 4.62757 24.5168 9.64911 22.5476C9.94449 22.4491 10.1414 22.5476 10.2399 22.843C10.3383 23.1384 10.2399 23.3353 9.94449 23.4338C5.80911 25.1076 3.05219 27.4707 2.36296 28.1599V30.9168C2.36296 31.0153 2.36296 31.1138 2.26449 31.1138L1.37834 32.9845V37.8091C1.37834 37.8091 1.4768 38.0061 2.06757 38.3999C2.85526 38.7938 5.71065 39.1876 6.79373 39.3845C7.08911 39.3845 7.28603 39.6799 7.18757 39.9753C7.38449 40.0737 7.08911 40.2707 6.89219 40.2707ZM44.3076 40.2707H18.7076C18.4122 40.2707 18.2153 40.0738 18.2153 39.7784C18.2153 39.483 18.4122 39.2861 18.7076 39.2861H44.3076C44.6029 39.2861 44.7999 39.483 44.7999 39.7784C44.7999 40.0738 44.6029 40.2707 44.3076 40.2707Z" fill="#116FFF"/>
<path d="M32.4922 30.4245H30.523C30.2276 30.4245 30.0306 30.2276 30.0306 29.9322C30.0306 29.6368 30.2276 29.4399 30.523 29.4399H32.4922C32.7876 29.4399 32.9845 29.6368 32.9845 29.9322C32.9845 30.2276 32.7876 30.4245 32.4922 30.4245ZM21.6614 30.4245H19.6922C19.3968 30.4245 19.1999 30.2276 19.1999 29.9322C19.1999 29.6368 19.3968 29.4399 19.6922 29.4399H21.6614C21.9568 29.4399 22.1537 29.6368 22.1537 29.9322C22.1537 30.2276 21.9568 30.4245 21.6614 30.4245ZM44.3076 27.4707H20.6768C15.5568 27.4707 13.3906 23.4338 13.3906 23.2368C13.2922 23.0399 13.3906 22.7445 13.5876 22.5476C13.7845 22.4491 14.0799 22.5476 14.2768 22.7445C14.3753 22.9414 16.1476 26.3876 20.7753 26.3876H44.406C44.7014 26.3876 44.8983 26.5845 44.8983 26.8799C44.8983 27.1753 44.6029 27.4707 44.3076 27.4707ZM9.84603 22.5476C9.55065 22.5476 9.35372 22.3507 9.35372 22.0553V21.0707C9.35372 20.7753 9.55065 20.5784 9.84603 20.5784C10.1414 20.5784 10.3383 20.7753 10.3383 21.0707V22.0553C10.3383 22.3507 10.1414 22.5476 9.84603 22.5476ZM3.93834 35.3476H0.984495C0.689111 35.3476 0.492188 35.1507 0.492188 34.8553C0.492188 34.5599 0.689111 34.363 0.984495 34.363H3.93834C4.23373 34.363 4.43065 34.5599 4.43065 34.8553C4.43065 35.1507 4.23373 35.3476 3.93834 35.3476ZM1.96911 31.4091C1.77219 31.4091 1.57526 31.3107 1.4768 31.1138C1.37834 30.8184 1.4768 30.6214 1.77219 30.523L6.69526 28.5538C6.99065 28.4553 7.18757 28.5538 7.28603 28.8491C7.38449 29.1445 7.28603 29.3414 6.99065 29.4399L2.06757 31.4091H1.96911Z" fill="#116FFF"/>
<path d="M6.89219 29.4399C6.89219 29.4399 6.79373 29.4399 6.89219 29.4399L1.87065 28.4553C1.57527 28.3568 1.47681 28.1599 1.47681 27.8645C1.57527 27.5691 1.77219 27.3722 2.06758 27.4707L6.99065 28.4553C7.28604 28.5537 7.3845 28.7507 7.3845 29.046C7.28604 29.243 7.08911 29.4399 6.89219 29.4399ZM27.5691 26.486C27.3722 26.486 27.1753 26.2891 27.0768 26.0922L26.0922 21.1691C25.9937 20.8737 26.1907 20.6768 26.486 20.5783C26.7814 20.4799 26.9783 20.6768 27.0768 20.9722L28.0614 25.8953C28.0614 26.1907 27.963 26.3876 27.5691 26.486C27.5691 26.486 27.6676 26.486 27.5691 26.486ZM63.0153 33.3783C63.0153 33.3783 62.9168 33.3783 63.0153 33.3783L57.0091 32.3937C56.7137 32.3937 56.5168 32.0984 56.6153 31.803C56.6153 31.5076 56.9106 31.3107 57.206 31.4091L63.1137 32.3937C63.4091 32.3937 63.606 32.6891 63.5076 32.9845C63.5076 33.1814 63.2122 33.3783 63.0153 33.3783Z" fill="#116FFF"/>
<path d="M57.1078 32.3938C57.0093 32.3938 56.9108 32.3938 56.9108 32.2954L54.9416 31.3108C54.7447 31.2123 54.6462 30.9169 54.7447 30.6215C54.8431 30.4246 55.1385 30.3262 55.4339 30.4246L57.4031 31.4092C57.6001 31.5077 57.6985 31.8031 57.6001 32.0985C57.5016 32.2954 57.3047 32.3938 57.1078 32.3938Z" fill="#116FFF"/>
<path d="M61.7355 31.4092H55.1385C54.8431 31.4092 54.6462 31.2123 54.6462 30.9169C54.6462 30.6215 54.8431 30.4246 55.1385 30.4246H61.7355C62.0308 30.4246 62.2278 30.6215 62.2278 30.9169C62.2278 31.2123 62.0308 31.4092 61.7355 31.4092ZM50.2155 39.2861C49.9201 39.2861 49.7231 39.0892 49.7231 38.7938C49.7231 38.4984 49.9201 38.3015 50.2155 38.3015C50.5108 38.3015 50.7078 38.4984 50.7078 38.7938C50.7078 39.0892 50.5108 39.2861 50.2155 39.2861Z" fill="#116FFF"/>
<path d="M50.2154 44.2092C47.2616 44.2092 44.8 41.7476 44.8 38.7938C44.8 35.84 47.2616 33.3784 50.2154 33.3784C53.1693 33.3784 55.6308 35.84 55.6308 38.7938C55.6308 41.7476 53.1693 44.2092 50.2154 44.2092ZM50.2154 34.363C47.7539 34.363 45.7847 36.3323 45.7847 38.7938C45.7847 41.2553 47.7539 43.2246 50.2154 43.2246C52.677 43.2246 54.6462 41.2553 54.6462 38.7938C54.6462 36.3323 52.677 34.363 50.2154 34.363Z" fill="#116FFF"/>
<path d="M50.2154 37.3169C49.9201 37.3169 49.7231 37.12 49.7231 36.8246V35.84C49.7231 35.5446 49.9201 35.3477 50.2154 35.3477C50.5108 35.3477 50.7077 35.5446 50.7077 35.84V36.8246C50.7077 37.12 50.5108 37.3169 50.2154 37.3169ZM50.2154 42.24C49.9201 42.24 49.7231 42.043 49.7231 41.7477V40.763C49.7231 40.4677 49.9201 40.2707 50.2154 40.2707C50.5108 40.2707 50.7077 40.4677 50.7077 40.763V41.7477C50.7077 42.043 50.5108 42.24 50.2154 42.24ZM48.2462 39.2861H47.2616C46.9662 39.2861 46.7693 39.0892 46.7693 38.7938C46.7693 38.4984 46.9662 38.3015 47.2616 38.3015H48.2462C48.5416 38.3015 48.7385 38.4984 48.7385 38.7938C48.7385 39.0892 48.5416 39.2861 48.2462 39.2861ZM53.1693 39.2861H52.1847C51.8893 39.2861 51.6924 39.0892 51.6924 38.7938C51.6924 38.4984 51.8893 38.3015 52.1847 38.3015H53.1693C53.4647 38.3015 53.6616 38.4984 53.6616 38.7938C53.6616 39.0892 53.4647 39.2861 53.1693 39.2861ZM48.837 37.9077C48.7385 37.9077 48.5416 37.8092 48.4431 37.7107L47.7539 36.923C47.557 36.7261 47.557 36.4307 47.7539 36.2338C47.9508 36.0369 48.2462 36.0369 48.4431 36.2338L49.1324 37.0215C49.3293 37.2184 49.3293 37.5138 49.1324 37.7107C49.0339 37.9077 48.9354 37.9077 48.837 37.9077ZM52.2831 41.3538C52.1847 41.3538 51.9877 41.3538 51.8893 41.2554L51.2001 40.5661C51.0031 40.3692 51.0031 40.0738 51.2001 39.8769C51.397 39.68 51.6924 39.68 51.8893 39.8769L52.5785 40.5661C52.7754 40.763 52.7754 41.0584 52.5785 41.2554C52.5785 41.3538 52.3816 41.3538 52.2831 41.3538ZM48.1477 41.3538C48.0493 41.3538 47.8524 41.3538 47.7539 41.2554C47.557 41.0584 47.557 40.763 47.7539 40.5661L48.4431 39.8769C48.6401 39.68 48.9354 39.68 49.1324 39.8769C49.3293 40.0738 49.3293 40.3692 49.1324 40.5661L48.4431 41.2554C48.4431 41.3538 48.2462 41.3538 48.1477 41.3538ZM51.5939 37.9077C51.4954 37.9077 51.397 37.9077 51.2985 37.8092C51.1016 37.6123 51.1016 37.3169 51.2985 37.12L51.9877 36.3323C52.1847 36.1353 52.48 36.1353 52.677 36.3323C52.8739 36.5292 52.8739 36.8246 52.677 37.0215L51.9877 37.8092C51.8893 37.8092 51.6924 37.9077 51.5939 37.9077Z" fill="#116FFF"/>
<path d="M12.7999 39.2861C12.5045 39.2861 12.3076 39.0892 12.3076 38.7938C12.3076 38.4984 12.5045 38.3015 12.7999 38.3015C13.0953 38.3015 13.2922 38.4984 13.2922 38.7938C13.2922 39.0892 13.0953 39.2861 12.7999 39.2861Z" fill="#116FFF"/>
<path d="M12.7999 44.2092C9.7476 44.2092 7.38452 41.8461 7.38452 38.7938C7.38452 35.7415 9.7476 33.3784 12.7999 33.3784C15.8522 33.3784 18.2153 35.7415 18.2153 38.7938C18.2153 41.8461 15.8522 44.2092 12.7999 44.2092ZM12.7999 34.363C10.3384 34.363 8.36914 36.3323 8.36914 38.7938C8.36914 41.2553 10.3384 43.2246 12.7999 43.2246C15.2614 43.2246 17.2307 41.2553 17.2307 38.7938C17.2307 36.3323 15.2614 34.363 12.7999 34.363Z" fill="#116FFF"/>
<path d="M12.7999 37.3169C12.5045 37.3169 12.3076 37.12 12.3076 36.8246V35.84C12.3076 35.5446 12.5045 35.3477 12.7999 35.3477C13.0953 35.3477 13.2922 35.5446 13.2922 35.84V36.8246C13.2922 37.12 13.0953 37.3169 12.7999 37.3169ZM12.7999 42.24C12.5045 42.24 12.3076 42.043 12.3076 41.7477V40.763C12.3076 40.4677 12.5045 40.2707 12.7999 40.2707C13.0953 40.2707 13.2922 40.4677 13.2922 40.763V41.7477C13.2922 42.043 13.0953 42.24 12.7999 42.24ZM10.8307 39.2861H9.84607C9.55068 39.2861 9.35376 39.0892 9.35376 38.7938C9.35376 38.4984 9.55068 38.3015 9.84607 38.3015H10.8307C11.1261 38.3015 11.323 38.4984 11.323 38.7938C11.323 39.0892 11.1261 39.2861 10.8307 39.2861ZM15.7538 39.2861H14.7691C14.4738 39.2861 14.2768 39.0892 14.2768 38.7938C14.2768 38.4984 14.4738 38.3015 14.7691 38.3015H15.7538C16.0491 38.3015 16.2461 38.4984 16.2461 38.7938C16.2461 39.0892 16.0491 39.2861 15.7538 39.2861ZM11.4215 37.9077C11.323 37.9077 11.1261 37.8092 11.0276 37.7107L10.3384 36.923C10.1415 36.7261 10.1415 36.4307 10.3384 36.2338C10.5353 36.0369 10.8307 36.0369 11.0276 36.2338L11.7168 37.0215C11.9138 37.2184 11.9138 37.5138 11.7168 37.7107C11.6184 37.9077 11.5199 37.9077 11.4215 37.9077ZM14.8676 41.3538C14.7691 41.3538 14.5722 41.3538 14.4738 41.2554L13.7845 40.5661C13.5876 40.3692 13.5876 40.0738 13.7845 39.8769C13.9815 39.68 14.2768 39.68 14.4738 39.8769L15.163 40.5661C15.3599 40.763 15.3599 41.0584 15.163 41.2554C15.163 41.3538 14.9661 41.3538 14.8676 41.3538ZM10.7322 41.3538C10.6338 41.3538 10.4368 41.3538 10.3384 41.2554C10.1415 41.0584 10.1415 40.763 10.3384 40.5661L11.0276 39.8769C11.2245 39.68 11.5199 39.68 11.7168 39.8769C11.9138 40.0738 11.9138 40.3692 11.7168 40.5661L11.0276 41.2554C11.0276 41.3538 10.8307 41.3538 10.7322 41.3538ZM14.1784 37.9077C14.0799 37.9077 13.9815 37.9077 13.883 37.8092C13.6861 37.6123 13.6861 37.3169 13.883 37.12L14.5722 36.3323C14.7691 36.1353 15.0645 36.1353 15.2615 36.3323C15.4584 36.5292 15.4584 36.8246 15.2615 37.0215L14.5722 37.8092C14.4738 37.8092 14.2768 37.9077 14.1784 37.9077Z" fill="#116FFF"/>
</svg>
