<svg width="40" height="11" viewBox="0 0 40 11" fill="none" xmlns="http://www.w3.org/2000/svg">
<rect width="40" height="11" rx="5.5" fill="#FF5555" fill-opacity="0.24"/>
<path d="M10 5.55713V3.82275H10.5508V6.0376H7.98438C7.95312 6.13916 7.92057 6.23682 7.88672 6.33057C7.85547 6.42171 7.82422 6.51156 7.79297 6.6001H11.0469V8.98291C11.0469 9.42041 10.8229 9.63916 10.375 9.63916H9.70312L9.55859 9.09229L10.1914 9.11963C10.3945 9.11963 10.4961 9.03369 10.4961 8.86182V7.11963H9.03125C9.35677 7.61442 9.65885 8.13916 9.9375 8.69385L9.47266 8.92432C9.4362 8.84619 9.39974 8.77067 9.36328 8.69775C9.32943 8.62484 9.29688 8.55452 9.26562 8.48682C8.95573 8.5415 8.55729 8.6027 8.07031 8.67041C7.58333 8.73812 7.00521 8.80973 6.33594 8.88525L6.19922 8.36572C6.32422 8.3501 6.40755 8.31885 6.44922 8.27197C6.55339 8.11051 6.65365 7.93473 6.75 7.74463C6.84635 7.55192 6.94271 7.34359 7.03906 7.11963H5.51953V9.63916H4.96875V6.6001H7.23828C7.27214 6.51156 7.30339 6.42041 7.33203 6.32666C7.36068 6.23031 7.39193 6.13395 7.42578 6.0376H5.45703V3.82275H6.00781V5.55713H10ZM8.85547 7.11963H7.59375C7.4974 7.3514 7.39974 7.56624 7.30078 7.76416C7.20182 7.95947 7.10417 8.14176 7.00781 8.31104C7.35938 8.27458 7.70312 8.23421 8.03906 8.18994C8.375 8.14567 8.70312 8.09489 9.02344 8.0376C8.94271 7.89697 8.86458 7.76286 8.78906 7.63525C8.71354 7.50765 8.63672 7.38265 8.55859 7.26025L8.85547 7.11963ZM6.71094 3.6626C6.96354 3.75374 7.20964 3.8514 7.44922 3.95557C7.69141 4.05973 7.92839 4.16781 8.16016 4.27979C8.32422 4.17562 8.48047 4.06755 8.62891 3.95557C8.77734 3.84098 8.91927 3.71859 9.05469 3.58838L9.46484 3.83838C9.32422 3.96598 9.18359 4.08577 9.04297 4.19775C8.90495 4.30973 8.76823 4.4139 8.63281 4.51025C8.80469 4.5988 8.97266 4.69124 9.13672 4.7876C9.30078 4.88135 9.46354 4.9777 9.625 5.07666L9.35938 5.479C9.16406 5.3514 8.96745 5.23031 8.76953 5.11572C8.57422 4.99854 8.37891 4.89046 8.18359 4.7915C7.97526 4.90609 7.74089 5.02197 7.48047 5.13916C7.22005 5.25374 6.92969 5.36702 6.60938 5.479L6.35156 5.06104C6.59896 4.99072 6.83333 4.9126 7.05469 4.82666C7.27604 4.74072 7.48698 4.64567 7.6875 4.5415C7.48438 4.44515 7.27995 4.354 7.07422 4.26807C6.87109 4.18213 6.66797 4.1027 6.46484 4.02979L6.71094 3.6626ZM8.11328 2.25244C8.20703 2.43994 8.29427 2.6613 8.375 2.9165H11.4336V3.45557H4.56641V2.9165H7.80078C7.75651 2.81234 7.71094 2.71468 7.66406 2.62354C7.61719 2.52979 7.56901 2.43864 7.51953 2.3501L8.11328 2.25244ZM13.3281 5.20557C13.0547 5.57536 12.7643 5.92171 12.457 6.24463L12.2734 5.63916C13.138 4.65999 13.7669 3.5376 14.1602 2.27197L14.6953 2.52588C14.487 3.1639 14.2227 3.76156 13.9023 4.31885V9.64697H13.3281V5.20557ZM18.4805 5.49463C18.6836 5.96598 18.8737 6.45557 19.0508 6.96338C19.2279 7.47119 19.3919 7.99723 19.543 8.5415L19.0391 8.76807C18.7214 7.6014 18.3646 6.56624 17.9688 5.6626L18.4805 5.49463ZM15.7266 3.84619C15.599 4.15869 15.4609 4.45557 15.3125 4.73682C15.1667 5.01807 15.0091 5.2863 14.8398 5.5415L14.3438 5.23682C14.9531 4.3488 15.3932 3.36572 15.6641 2.2876L16.207 2.39697C16.168 2.55322 16.125 2.70557 16.0781 2.854C16.0312 3.00244 15.9844 3.14697 15.9375 3.2876H19.3438V3.6626C19.2786 3.90999 19.2057 4.15609 19.125 4.40088C19.0469 4.64567 18.957 4.88786 18.8555 5.12744L18.3047 4.96729C18.4922 4.62354 18.6445 4.24984 18.7617 3.84619H15.7266ZM16.7266 9.58838H15.6797L15.5586 9.04541C15.7279 9.05843 15.8932 9.06755 16.0547 9.07275C16.2188 9.08057 16.3763 9.08447 16.5273 9.08447C16.7305 9.08447 16.832 8.98161 16.832 8.77588V4.51807H17.3906V8.9165C17.3906 9.36442 17.1693 9.58838 16.7266 9.58838ZM15.5273 5.55713L16.0469 5.70166C15.7604 6.81364 15.3854 7.7902 14.9219 8.63135L14.3828 8.43994C14.8203 7.67692 15.2018 6.71598 15.5273 5.55713ZM20.4805 5.43213H27.5352V5.89307H23.9453V8.42041C24.0234 8.40999 24.1016 8.39958 24.1797 8.38916C24.2604 8.37614 24.3359 8.36312 24.4062 8.3501V8.80713C24.3359 8.81755 24.2604 8.82926 24.1797 8.84229C24.1016 8.85531 24.0234 8.86963 23.9453 8.88525V9.6626H23.3828V8.95947C23.0026 9.00374 22.5781 9.04541 22.1094 9.08447C21.6432 9.12354 21.1315 9.15869 20.5742 9.18994L20.5039 8.69385L21.2461 8.6626V5.89307H20.4805V5.43213ZM21.7695 8.63916C22.3737 8.59749 22.9115 8.54932 23.3828 8.49463V7.95166H21.7695V8.63916ZM21.7695 7.52588H23.3828V6.92432H21.7695V7.52588ZM21.7695 6.49463H23.3828V5.89307H21.7695V6.49463ZM21.4961 2.6001H26.5508V4.90088H21.4961V2.6001ZM26 4.48682V3.95166H22.0469V4.48682H26ZM22.0469 3.5415H26V3.02979H22.0469V3.5415ZM24.6172 6.90088H24.3594V6.43213H27.0898V6.87744C26.9388 7.48682 26.6693 8.01807 26.2812 8.47119C26.6302 8.73421 27.0508 8.96859 27.543 9.17432L27.2461 9.65479C26.7122 9.40218 26.2669 9.13005 25.9102 8.83838C25.5456 9.15609 25.1003 9.42822 24.5742 9.65479L24.2812 9.20557C24.5208 9.1014 24.7435 8.98812 24.9492 8.86572C25.1576 8.74593 25.3477 8.61442 25.5195 8.47119C25.0794 8.01286 24.7786 7.48942 24.6172 6.90088ZM25.8711 8.12744C26.1914 7.75765 26.4232 7.3488 26.5664 6.90088H25.1133C25.2591 7.36442 25.5117 7.77327 25.8711 8.12744ZM33.4727 5.104H31.9023C31.8398 6.39567 31.5339 7.43734 30.9844 8.229L30.5859 7.81494C31.0781 7.11442 31.3438 6.13786 31.3828 4.88525V2.81494C32.6198 2.7915 33.7292 2.64437 34.7109 2.37354L34.9844 2.87744C34.0599 3.11963 33.0391 3.26156 31.9219 3.30322V4.54932H35.4258V5.104H34.0312V8.47119H33.4727V5.104ZM29.0234 2.42041C29.5521 2.84489 30 3.26937 30.3672 3.69385L29.9531 4.104C29.7917 3.90348 29.6003 3.69385 29.3789 3.4751C29.1602 3.25635 28.9115 3.03109 28.6328 2.79932L29.0234 2.42041ZM33.6719 9.51025C33.4557 9.51025 33.2292 9.50765 32.9922 9.50244C32.7578 9.49984 32.5156 9.49723 32.2656 9.49463C31.7578 9.479 31.3438 9.43083 31.0234 9.3501C30.7135 9.25635 30.4336 9.05843 30.1836 8.75635C30.082 8.62354 29.9805 8.55713 29.8789 8.55713C29.6914 8.55713 29.3776 8.92562 28.9375 9.6626L28.5039 9.27197C28.9284 8.59749 29.3047 8.18864 29.6328 8.04541V5.61572H28.4883V5.08447H30.168V8.08447C30.2253 8.12874 30.2891 8.19124 30.3594 8.27197C30.5547 8.49854 30.7604 8.6665 30.9766 8.77588C31.0964 8.83057 31.2448 8.87223 31.4219 8.90088C31.6016 8.93213 31.8073 8.95166 32.0391 8.95947C32.2474 8.96208 32.4805 8.96468 32.7383 8.96729C32.9987 8.97249 33.2839 8.9751 33.5938 8.9751C33.7839 8.9751 33.9753 8.9738 34.168 8.97119C34.3633 8.96859 34.5612 8.96729 34.7617 8.96729C34.957 8.96208 35.1302 8.95687 35.2812 8.95166C35.4323 8.94906 35.5599 8.94385 35.6641 8.93604L35.5195 9.51025H33.6719Z" fill="#FF5555"/>
</svg>
