<svg width="26" height="26" viewBox="0 0 26 26" fill="none" xmlns="http://www.w3.org/2000/svg">
<path d="M0.708357 25.209V17.5227H1.38972L1.24797 16.1313L2.80996 14.4625H0.705811V12.9579H3.78803V13.3341L6.29432 10.2773H19.6166L22.2443 13.4904V12.9578H25.2145V14.4346H23.0721L24.6635 16.1312L24.521 17.5187L25.2144 17.5227V25.209H20.8975V23.7833H5.05398V25.209H0.708357V25.209ZM5.37744 0.710449H20.2377L20.9748 2.47227H20.0952L20.7324 4.19389L19.4368 4.68826L18.611 2.47227L17.0696 2.47227L17.4153 4.59631L16.0469 4.82274L15.6642 2.47227L13.3991 2.47227V4.75376H12.0123V2.47227H9.90899L9.52554 4.82274L8.15797 4.59631L8.50292 2.47227H6.9615L6.13578 4.68826L4.84082 4.19389L5.47742 2.47227H4.6398L5.37744 0.710449ZM22.6114 9.03752L21.3156 9.53018L22.335 12.1962L23.6301 11.7034L22.6114 9.03752ZM21.1332 5.24497L19.8375 5.73758L20.8569 8.40358L22.1519 7.91095L21.1332 5.24497ZM17.5996 5.70501L16.232 5.93168L16.7016 8.7471L18.0698 8.51816L17.5996 5.70501ZM2.96108 9.03752L1.9417 11.7034L3.23734 12.1962L4.25688 9.53018L2.96108 9.03752ZM4.43985 5.24497L5.73428 5.73758L4.71555 8.40358L3.42059 7.91095L4.43985 5.24497ZM7.97287 5.70501L9.34042 5.93168L8.87037 8.74708L7.50265 8.51814L7.97287 5.70501ZM12.0122 5.87913H13.3991V8.73185H12.0122V5.87913ZM2.90856 16.9722L3.38262 19.158H8.30313L8.14529 18.3896L2.90856 16.9722ZM5.60786 20.4377L6.03396 22.2215H19.5418L19.9681 20.4377H5.60786ZM23.0374 16.9722L17.8014 18.3896L17.6429 19.158H22.5634L23.0374 16.9722ZM5.15303 13.9766C10.0648 13.9366 15.8904 13.9366 20.757 13.9766L18.8215 11.4518H7.08982L5.15303 13.9766Z" fill="white"/>
</svg>
